<svg width="318" height="100" viewBox="0 0 318 100" fill="none" xmlns="http://www.w3.org/2000/svg">
<path d="M23.856 67V35.962H29.61V49.36L39.228 35.962H46.158L34.482 51.208L46.158 67H39.228L29.61 53.35V67H23.856ZM49.9009 67V35.962H56.4529L69.3049 58.558V35.962H75.0589V67H68.6329L55.6549 44.446V67H49.9009Z" fill="white"/>
<rect x="2" y="2" width="96" height="96" rx="48" stroke="white" stroke-width="4"/>
<path d="M117.904 42V21.308H121.74V30.24L128.152 21.308H132.772L124.988 31.472L132.772 42H128.152L121.74 32.9V42H117.904ZM135.267 42V21.308H146.383V24.976H139.103V29.848H146.075V33.516H139.103V38.332H146.383V42H135.267ZM149.814 42V21.308H154.182L162.75 36.372V21.308H166.586V42H162.302L153.65 26.964V42H149.814ZM174.909 42L168.833 21.308H172.753L176.393 35.756L179.921 21.308H182.721L186.193 35.756L189.861 21.308H193.781L187.733 42H184.681L181.349 28.308L177.933 42H174.909ZM192.594 42L201.218 21.308H204.242L212.922 42H208.694L206.482 36.652H199.118L196.822 42H192.594ZM200.518 32.984H204.942L202.73 26.712L200.518 32.984ZM215.029 42V21.308H218.865V30.24L225.277 21.308H229.897L222.113 31.472L229.897 42H225.277L218.865 32.9V42H215.029ZM230.684 42L239.308 21.308H242.332L251.012 42H246.784L244.572 36.652H237.208L234.912 42H230.684ZM238.608 32.984H243.032L240.82 26.712L238.608 32.984ZM253.119 42V21.308H257.487L266.055 36.372V21.308H269.891V42H265.607L256.955 26.964V42H253.119ZM273.845 42V21.308H279.109L284.681 36.988L290.197 21.308H295.461V42H291.625V26.488L286.221 42H283.085L277.681 26.488V42H273.845ZM297.348 42L305.972 21.308H308.996L317.676 42H313.448L311.236 36.652H303.872L301.576 42H297.348ZM305.272 32.984H309.696L307.484 26.712L305.272 32.984ZM130.308 68.876H134.48L130.896 75.008L134.592 78.956L131.932 81.364L128.992 78.256C127.835 79.7867 126.715 80.7293 125.632 81.084C125.091 81.2707 124.456 81.364 123.728 81.364C121.675 81.364 119.985 80.6267 118.66 79.152C117.54 77.92 116.98 76.4547 116.98 74.756C116.98 72.7213 117.857 71.032 119.612 69.688C119.985 69.408 120.396 69.1373 120.844 68.876C119.892 67.7933 119.341 66.8507 119.192 66.048C119.136 65.768 119.108 65.4413 119.108 65.068C119.108 63.388 119.752 62.044 121.04 61.036C121.992 60.308 123.093 59.944 124.344 59.944C126.136 59.944 127.545 60.588 128.572 61.876C129.3 62.7907 129.664 63.8453 129.664 65.04C129.664 66.44 129.244 67.616 128.404 68.568C128.031 68.9787 127.368 69.492 126.416 70.108L128.292 72.208L130.308 68.876ZM124.092 67.532C125.156 66.972 125.781 66.4493 125.968 65.964C126.061 65.74 126.108 65.4693 126.108 65.152C126.108 64.3307 125.753 63.7987 125.044 63.556C124.857 63.4813 124.643 63.444 124.4 63.444C123.653 63.444 123.131 63.7613 122.832 64.396C122.72 64.62 122.664 64.8627 122.664 65.124C122.664 65.7587 123.037 66.4587 123.784 67.224L124.092 67.532ZM126.416 75.456L123.196 71.984C121.665 72.6747 120.844 73.552 120.732 74.616C120.713 74.728 120.704 74.8493 120.704 74.98C120.704 76.044 121.161 76.828 122.076 77.332C122.505 77.556 122.981 77.668 123.504 77.668C124.4 77.668 125.156 77.2667 125.772 76.464C125.977 76.2027 126.192 75.8667 126.416 75.456ZM143.075 81L151.699 60.308H154.723L163.403 81H159.175L156.963 75.652H149.599L147.303 81H143.075ZM150.999 71.984H155.423L153.211 65.712L150.999 71.984ZM163.997 75.092H168.001C168.169 76.8093 169.103 77.668 170.801 77.668C172.015 77.668 172.855 77.22 173.321 76.324C173.508 75.9693 173.601 75.5773 173.601 75.148C173.601 74.2707 173.284 73.5707 172.649 73.048C172.201 72.7307 171.445 72.3667 170.381 71.956C170.064 71.8253 169.625 71.6573 169.065 71.452C166.639 70.5373 165.229 69.0253 164.837 66.916C164.781 66.5613 164.753 66.1973 164.753 65.824C164.753 64.0133 165.453 62.52 166.853 61.344C167.973 60.4107 169.28 59.944 170.773 59.944C172.659 59.944 174.189 60.588 175.365 61.876C175.459 61.9693 175.543 62.0627 175.617 62.156C176.401 63.108 176.831 64.3307 176.905 65.824H172.929C172.817 64.5173 172.201 63.7987 171.081 63.668C170.969 63.6493 170.857 63.64 170.745 63.64C169.775 63.64 169.121 64.0413 168.785 64.844C168.673 65.124 168.617 65.4227 168.617 65.74C168.617 66.5053 169 67.1307 169.765 67.616C169.971 67.7467 170.736 68.0547 172.061 68.54C173.629 69.1187 174.712 69.6693 175.309 70.192C175.384 70.2667 175.468 70.3413 175.561 70.416C176.793 71.5547 177.409 72.992 177.409 74.728C177.409 76.7813 176.663 78.4613 175.169 79.768C173.937 80.832 172.481 81.364 170.801 81.364C168.785 81.364 167.124 80.7013 165.817 79.376C165.649 79.208 165.491 79.0307 165.341 78.844C164.576 77.8547 164.128 76.604 163.997 75.092ZM178.544 75.092H182.548C182.716 76.8093 183.65 77.668 185.348 77.668C186.562 77.668 187.402 77.22 187.868 76.324C188.055 75.9693 188.148 75.5773 188.148 75.148C188.148 74.2707 187.831 73.5707 187.196 73.048C186.748 72.7307 185.992 72.3667 184.928 71.956C184.611 71.8253 184.172 71.6573 183.612 71.452C181.186 70.5373 179.776 69.0253 179.384 66.916C179.328 66.5613 179.3 66.1973 179.3 65.824C179.3 64.0133 180 62.52 181.4 61.344C182.52 60.4107 183.827 59.944 185.32 59.944C187.206 59.944 188.736 60.588 189.912 61.876C190.006 61.9693 190.09 62.0627 190.164 62.156C190.948 63.108 191.378 64.3307 191.452 65.824H187.476C187.364 64.5173 186.748 63.7987 185.628 63.668C185.516 63.6493 185.404 63.64 185.292 63.64C184.322 63.64 183.668 64.0413 183.332 64.844C183.22 65.124 183.164 65.4227 183.164 65.74C183.164 66.5053 183.547 67.1307 184.312 67.616C184.518 67.7467 185.283 68.0547 186.608 68.54C188.176 69.1187 189.259 69.6693 189.856 70.192C189.931 70.2667 190.015 70.3413 190.108 70.416C191.34 71.5547 191.956 72.992 191.956 74.728C191.956 76.7813 191.21 78.4613 189.716 79.768C188.484 80.832 187.028 81.364 185.348 81.364C183.332 81.364 181.671 80.7013 180.364 79.376C180.196 79.208 180.038 79.0307 179.888 78.844C179.123 77.8547 178.675 76.604 178.544 75.092ZM204.459 59.944C207.297 59.944 209.733 60.9147 211.767 62.856C213.783 64.7787 214.885 67.1213 215.071 69.884C215.09 70.1267 215.099 70.3787 215.099 70.64C215.099 73.5893 214.119 76.0907 212.159 78.144C210.218 80.16 207.801 81.2333 204.907 81.364C204.739 81.364 204.581 81.364 204.431 81.364C201.501 81.364 198.99 80.3933 196.899 78.452C194.865 76.548 193.754 74.196 193.567 71.396C193.549 71.1533 193.539 70.9107 193.539 70.668C193.539 67.7187 194.538 65.2267 196.535 63.192C198.533 61.1573 201.006 60.0747 203.955 59.944C204.123 59.944 204.291 59.944 204.459 59.944ZM204.403 63.64C202.238 63.64 200.474 64.424 199.111 65.992L198.467 66.86C197.758 67.9987 197.403 69.268 197.403 70.668C197.403 72.7587 198.159 74.4947 199.671 75.876C200.997 77.0707 202.574 77.668 204.403 77.668C206.55 77.668 208.286 76.884 209.611 75.316C210.694 74.028 211.235 72.488 211.235 70.696C211.235 68.5307 210.479 66.7573 208.967 65.376C207.679 64.2187 206.158 63.64 204.403 63.64ZM232.987 75.232H237.495C236.487 77.584 234.816 79.3013 232.483 80.384C231.083 81.0373 229.571 81.364 227.947 81.364C225.054 81.364 222.562 80.384 220.471 78.424C218.418 76.52 217.288 74.1773 217.083 71.396C217.064 71.1347 217.055 70.864 217.055 70.584C217.055 67.8027 218.007 65.3947 219.911 63.36C221.778 61.344 224.064 60.2147 226.771 59.972C227.088 59.9533 227.396 59.944 227.695 59.944C230.308 59.944 232.595 60.7373 234.555 62.324C235.675 63.2387 236.543 64.312 237.159 65.544L237.495 66.244H233.211C231.998 64.676 230.439 63.8173 228.535 63.668C228.292 63.6493 228.04 63.64 227.779 63.64C225.632 63.64 223.915 64.396 222.627 65.908C221.563 67.3267 220.994 68.8947 220.919 70.612C220.919 72.6467 221.666 74.364 223.159 75.764C224.484 77.0333 226.052 77.668 227.863 77.668C229.506 77.668 230.98 77.0893 232.287 75.932C232.511 75.7267 232.744 75.4933 232.987 75.232ZM239.967 81V60.308H243.803V81H239.967ZM246.106 81L254.73 60.308H257.754L266.434 81H262.206L259.994 75.652H252.63L250.334 81H246.106ZM254.03 71.984H258.454L256.242 65.712L254.03 71.984ZM269.52 81V63.976H265.684V60.308H277.192V63.976H273.356V81H269.52ZM279.15 81V60.308H290.266V63.976H282.986V68.848H289.958V72.516H282.986V77.332H290.266V81H279.15ZM292.185 75.092H296.189C296.357 76.8093 297.29 77.668 298.989 77.668C300.202 77.668 301.042 77.22 301.509 76.324C301.696 75.9693 301.789 75.5773 301.789 75.148C301.789 74.2707 301.472 73.5707 300.837 73.048C300.389 72.7307 299.633 72.3667 298.569 71.956C298.252 71.8253 297.813 71.6573 297.253 71.452C294.826 70.5373 293.417 69.0253 293.025 66.916C292.969 66.5613 292.941 66.1973 292.941 65.824C292.941 64.0133 293.641 62.52 295.041 61.344C296.161 60.4107 297.468 59.944 298.961 59.944C300.846 59.944 302.377 60.588 303.553 61.876C303.646 61.9693 303.73 62.0627 303.805 62.156C304.589 63.108 305.018 64.3307 305.093 65.824H301.117C301.005 64.5173 300.389 63.7987 299.269 63.668C299.157 63.6493 299.045 63.64 298.933 63.64C297.962 63.64 297.309 64.0413 296.973 64.844C296.861 65.124 296.805 65.4227 296.805 65.74C296.805 66.5053 297.188 67.1307 297.953 67.616C298.158 67.7467 298.924 68.0547 300.249 68.54C301.817 69.1187 302.9 69.6693 303.497 70.192C303.572 70.2667 303.656 70.3413 303.749 70.416C304.981 71.5547 305.597 72.992 305.597 74.728C305.597 76.7813 304.85 78.4613 303.357 79.768C302.125 80.832 300.669 81.364 298.989 81.364C296.973 81.364 295.312 80.7013 294.005 79.376C293.837 79.208 293.678 79.0307 293.529 78.844C292.764 77.8547 292.316 76.604 292.185 75.092Z" fill="white"/>
</svg>
