<svg width="376" height="100" viewBox="0 0 376 100" fill="none" xmlns="http://www.w3.org/2000/svg">
<path d="M23.856 67V35.962H29.61V49.36L39.228 35.962H46.158L34.482 51.208L46.158 67H39.228L29.61 53.35V67H23.856ZM49.9009 67V35.962H56.4529L69.3049 58.558V35.962H75.0589V67H68.6329L55.6549 44.446V67H49.9009Z" fill="#121212"/>
<rect x="2" y="2" width="96" height="96" rx="48" stroke="#121212" stroke-width="4"/>
<path d="M118.448 39V12.396H123.38V23.88L131.624 12.396H137.564L127.556 25.464L137.564 39H131.624L123.38 27.3V39H118.448ZM140.772 39V12.396H155.064V17.112H145.704V23.376H154.668V28.092H145.704V34.284H155.064V39H140.772ZM159.475 39V12.396H165.091L176.107 31.764V12.396H181.039V39H175.531L164.407 19.668V39H159.475ZM191.74 39L183.928 12.396H188.968L193.648 30.972L198.184 12.396H201.784L206.248 30.972L210.964 12.396H216.004L208.228 39H204.304L200.02 21.396L195.628 39H191.74ZM214.479 39L225.567 12.396H229.455L240.615 39H235.179L232.335 32.124H222.867L219.915 39H214.479ZM224.667 27.408H230.355L227.511 19.344L224.667 27.408ZM243.323 39V12.396H248.255V23.88L256.499 12.396H262.439L252.431 25.464L262.439 39H256.499L248.255 27.3V39H243.323ZM263.451 39L274.539 12.396H278.427L289.587 39H284.151L281.307 32.124H271.839L268.887 39H263.451ZM273.639 27.408H279.327L276.483 19.344L273.639 27.408ZM292.296 39V12.396H297.912L308.928 31.764V12.396H313.86V39H308.352L297.228 19.668V39H292.296ZM318.944 39V12.396H325.712L332.876 32.556L339.968 12.396H346.736V39H341.804V19.056L334.856 39H330.824L323.876 19.056V39H318.944ZM349.162 39L360.25 12.396H364.138L375.298 39H369.862L367.018 32.124H357.55L354.598 39H349.162ZM359.35 27.408H365.038L362.194 19.344L359.35 27.408ZM134.396 73.412H139.76L135.152 81.296L139.904 86.372L136.484 89.468L132.704 85.472C131.216 87.44 129.776 88.652 128.384 89.108C127.688 89.348 126.872 89.468 125.936 89.468C123.296 89.468 121.124 88.52 119.42 86.624C117.98 85.04 117.26 83.156 117.26 80.972C117.26 78.356 118.388 76.184 120.644 74.456C121.124 74.096 121.652 73.748 122.228 73.412C121.004 72.02 120.296 70.808 120.104 69.776C120.032 69.416 119.996 68.996 119.996 68.516C119.996 66.356 120.824 64.628 122.48 63.332C123.704 62.396 125.12 61.928 126.728 61.928C129.032 61.928 130.844 62.756 132.164 64.412C133.1 65.588 133.568 66.944 133.568 68.48C133.568 70.28 133.028 71.792 131.948 73.016C131.468 73.544 130.616 74.204 129.392 74.996L131.804 77.696L134.396 73.412ZM126.404 71.684C127.772 70.964 128.576 70.292 128.816 69.668C128.936 69.38 128.996 69.032 128.996 68.624C128.996 67.568 128.54 66.884 127.628 66.572C127.388 66.476 127.112 66.428 126.8 66.428C125.84 66.428 125.168 66.836 124.784 67.652C124.64 67.94 124.568 68.252 124.568 68.588C124.568 69.404 125.048 70.304 126.008 71.288L126.404 71.684ZM129.392 81.872L125.252 77.408C123.284 78.296 122.228 79.424 122.084 80.792C122.06 80.936 122.048 81.092 122.048 81.26C122.048 82.628 122.636 83.636 123.812 84.284C124.364 84.572 124.976 84.716 125.648 84.716C126.8 84.716 127.772 84.2 128.564 83.168C128.828 82.832 129.104 82.4 129.392 81.872ZM150.811 89L161.899 62.396H165.787L176.947 89H171.511L168.667 82.124H159.199L156.247 89H150.811ZM160.999 77.408H166.687L163.843 69.344L160.999 77.408ZM177.711 81.404H182.859C183.075 83.612 184.275 84.716 186.459 84.716C188.019 84.716 189.099 84.14 189.699 82.988C189.939 82.532 190.059 82.028 190.059 81.476C190.059 80.348 189.651 79.448 188.835 78.776C188.259 78.368 187.287 77.9 185.919 77.372C185.511 77.204 184.947 76.988 184.227 76.724C181.107 75.548 179.295 73.604 178.791 70.892C178.719 70.436 178.683 69.968 178.683 69.488C178.683 67.16 179.583 65.24 181.383 63.728C182.823 62.528 184.503 61.928 186.423 61.928C188.847 61.928 190.815 62.756 192.327 64.412C192.447 64.532 192.555 64.652 192.651 64.772C193.659 65.996 194.211 67.568 194.307 69.488H189.195C189.051 67.808 188.259 66.884 186.819 66.716C186.675 66.692 186.531 66.68 186.387 66.68C185.139 66.68 184.299 67.196 183.867 68.228C183.723 68.588 183.651 68.972 183.651 69.38C183.651 70.364 184.143 71.168 185.127 71.792C185.391 71.96 186.375 72.356 188.079 72.98C190.095 73.724 191.487 74.432 192.255 75.104C192.351 75.2 192.459 75.296 192.579 75.392C194.163 76.856 194.955 78.704 194.955 80.936C194.955 83.576 193.995 85.736 192.075 87.416C190.491 88.784 188.619 89.468 186.459 89.468C183.867 89.468 181.731 88.616 180.051 86.912C179.835 86.696 179.631 86.468 179.439 86.228C178.455 84.956 177.879 83.348 177.711 81.404ZM196.414 81.404H201.562C201.778 83.612 202.978 84.716 205.162 84.716C206.722 84.716 207.802 84.14 208.402 82.988C208.642 82.532 208.762 82.028 208.762 81.476C208.762 80.348 208.354 79.448 207.538 78.776C206.962 78.368 205.99 77.9 204.622 77.372C204.214 77.204 203.65 76.988 202.93 76.724C199.81 75.548 197.998 73.604 197.494 70.892C197.422 70.436 197.386 69.968 197.386 69.488C197.386 67.16 198.286 65.24 200.086 63.728C201.526 62.528 203.206 61.928 205.126 61.928C207.55 61.928 209.518 62.756 211.03 64.412C211.15 64.532 211.258 64.652 211.354 64.772C212.362 65.996 212.914 67.568 213.01 69.488H207.898C207.754 67.808 206.962 66.884 205.522 66.716C205.378 66.692 205.234 66.68 205.09 66.68C203.842 66.68 203.002 67.196 202.57 68.228C202.426 68.588 202.354 68.972 202.354 69.38C202.354 70.364 202.846 71.168 203.83 71.792C204.094 71.96 205.078 72.356 206.782 72.98C208.798 73.724 210.19 74.432 210.958 75.104C211.054 75.2 211.162 75.296 211.282 75.392C212.866 76.856 213.658 78.704 213.658 80.936C213.658 83.576 212.698 85.736 210.778 87.416C209.194 88.784 207.322 89.468 205.162 89.468C202.57 89.468 200.434 88.616 198.754 86.912C198.538 86.696 198.334 86.468 198.142 86.228C197.158 84.956 196.582 83.348 196.414 81.404ZM229.733 61.928C233.381 61.928 236.513 63.176 239.129 65.672C241.721 68.144 243.137 71.156 243.377 74.708C243.401 75.02 243.413 75.344 243.413 75.68C243.413 79.472 242.153 82.688 239.633 85.328C237.137 87.92 234.029 89.3 230.309 89.468C230.093 89.468 229.889 89.468 229.697 89.468C225.929 89.468 222.701 88.22 220.013 85.724C217.397 83.276 215.969 80.252 215.729 76.652C215.705 76.34 215.693 76.028 215.693 75.716C215.693 71.924 216.977 68.72 219.545 66.104C222.113 63.488 225.293 62.096 229.085 61.928C229.301 61.928 229.517 61.928 229.733 61.928ZM229.661 66.68C226.877 66.68 224.609 67.688 222.857 69.704L222.029 70.82C221.117 72.284 220.661 73.916 220.661 75.716C220.661 78.404 221.633 80.636 223.577 82.412C225.281 83.948 227.309 84.716 229.661 84.716C232.421 84.716 234.653 83.708 236.357 81.692C237.749 80.036 238.445 78.056 238.445 75.752C238.445 72.968 237.473 70.688 235.529 68.912C233.873 67.424 231.917 66.68 229.661 66.68ZM266.412 81.584H272.208C270.912 84.608 268.764 86.816 265.764 88.208C263.964 89.048 262.02 89.468 259.932 89.468C256.212 89.468 253.008 88.208 250.32 85.688C247.68 83.24 246.228 80.228 245.964 76.652C245.94 76.316 245.928 75.968 245.928 75.608C245.928 72.032 247.152 68.936 249.6 66.32C252 63.728 254.94 62.276 258.42 61.964C258.828 61.94 259.224 61.928 259.608 61.928C262.968 61.928 265.908 62.948 268.428 64.988C269.868 66.164 270.984 67.544 271.776 69.128L272.208 70.028H266.7C265.14 68.012 263.136 66.908 260.688 66.716C260.376 66.692 260.052 66.68 259.716 66.68C256.956 66.68 254.748 67.652 253.092 69.596C251.724 71.42 250.992 73.436 250.896 75.644C250.896 78.26 251.856 80.468 253.776 82.268C255.48 83.9 257.496 84.716 259.824 84.716C261.936 84.716 263.832 83.972 265.512 82.484C265.8 82.22 266.1 81.92 266.412 81.584ZM275.386 89V62.396H280.318V89H275.386ZM283.279 89L294.367 62.396H298.255L309.415 89H303.979L301.135 82.124H291.667L288.715 89H283.279ZM293.467 77.408H299.155L296.311 69.344L293.467 77.408ZM313.383 89V67.112H308.451V62.396H323.247V67.112H318.315V89H313.383ZM325.764 89V62.396H340.056V67.112H330.696V73.376H339.66V78.092H330.696V84.284H340.056V89H325.764ZM342.524 81.404H347.672C347.888 83.612 349.088 84.716 351.272 84.716C352.832 84.716 353.912 84.14 354.512 82.988C354.752 82.532 354.872 82.028 354.872 81.476C354.872 80.348 354.464 79.448 353.648 78.776C353.072 78.368 352.1 77.9 350.732 77.372C350.324 77.204 349.76 76.988 349.04 76.724C345.92 75.548 344.108 73.604 343.604 70.892C343.532 70.436 343.496 69.968 343.496 69.488C343.496 67.16 344.396 65.24 346.196 63.728C347.636 62.528 349.316 61.928 351.236 61.928C353.66 61.928 355.628 62.756 357.14 64.412C357.26 64.532 357.368 64.652 357.464 64.772C358.472 65.996 359.024 67.568 359.12 69.488H354.008C353.864 67.808 353.072 66.884 351.632 66.716C351.488 66.692 351.344 66.68 351.2 66.68C349.952 66.68 349.112 67.196 348.68 68.228C348.536 68.588 348.464 68.972 348.464 69.38C348.464 70.364 348.956 71.168 349.94 71.792C350.204 71.96 351.188 72.356 352.892 72.98C354.908 73.724 356.3 74.432 357.068 75.104C357.164 75.2 357.272 75.296 357.392 75.392C358.976 76.856 359.768 78.704 359.768 80.936C359.768 83.576 358.808 85.736 356.888 87.416C355.304 88.784 353.432 89.468 351.272 89.468C348.68 89.468 346.544 88.616 344.864 86.912C344.648 86.696 344.444 86.468 344.252 86.228C343.268 84.956 342.692 83.348 342.524 81.404Z" fill="#121212"/>
</svg>
